<?xml version="1.0" encoding="utf-8"?>
<!-- Generator: Adobe Illustrator 24.3.0, SVG Export Plug-In . SVG Version: 6.00 Build 0)  -->
<svg version="1.1" id="Layer_1" xmlns="http://www.w3.org/2000/svg" xmlns:xlink="http://www.w3.org/1999/xlink" x="0px" y="0px"
	 viewBox="-35 31.2 864 295.3" style="enable-background:new -35 31.2 864 295.3;" xml:space="preserve">
<style type="text/css">
	.st0{fill:#231F20;}
	.st1{fill:#BF1B0A;}
	.st2{fill:none;}
</style>
<g>
	<path class="st0" d="M360.3,103l-2.5,14.4h-41.9l-4.7,27.5H353l-2.6,14.4h-42l-7.2,41.9h-14.4l17.2-98.2L360.3,103L360.3,103z"/>
	<path class="st0" d="M383.1,103l-17.2,98.2h-14.3l17.2-98.2L383.1,103L383.1,103z"/>
	<path class="st0" d="M454.1,157.4c0,2.2-0.2,4.5-0.6,6.7c-1.8,10.5-7.2,19.6-16,27.1c-8.8,7.5-18.5,11.3-29,11.3
		c-9.4,0-17.1-3-23.2-9c-6-6-9-13.5-9-22.6c0-2.2,0.2-4.5,0.6-6.7c1.8-10.5,7.2-19.6,16-27.1c8.8-7.5,18.5-11.3,29-11.3
		c9.4,0,17.1,3,23.2,9C451.1,140.8,454.1,148.4,454.1,157.4z M439.5,159.9c0-5.7-1.9-10.4-5.6-14.1c-3.8-3.8-8.6-5.6-14.5-5.6
		c-7.3,0-13.9,2.9-19.8,8.6c-5.8,5.7-8.7,12.2-8.7,19.6c0,5.7,1.9,10.4,5.7,14.1c3.8,3.8,8.6,5.6,14.4,5.6c7.4,0,14-2.9,19.8-8.6
		C436.6,173.8,439.5,167.2,439.5,159.9z"/>
	<path class="st0" d="M527.1,157.4c0,2.2-0.2,4.5-0.6,6.7c-1.8,10.5-7.2,19.6-16,27.1c-8.8,7.5-18.5,11.3-29,11.3
		c-9.4,0-17.1-3-23.2-9c-6-6-9-13.5-9-22.6c0-2.2,0.2-4.5,0.6-6.7c1.8-10.5,7.2-19.6,16-27.1c8.8-7.5,18.5-11.3,29-11.3
		c9.4,0,17.1,3,23.2,9C524.1,140.8,527.1,148.4,527.1,157.4z M512.5,159.9c0-5.7-1.9-10.4-5.6-14.1c-3.8-3.8-8.6-5.6-14.5-5.6
		c-7.3,0-13.9,2.9-19.8,8.6c-5.8,5.7-8.7,12.2-8.7,19.6c0,5.7,1.9,10.4,5.7,14.1c3.8,3.8,8.6,5.6,14.4,5.6c7.4,0,14-2.9,19.8-8.6
		C509.6,173.8,512.5,167.2,512.5,159.9z"/>
	<path class="st0" d="M574.7,125.8l-2.6,14.4c-5.8,0-11,1.9-15.5,5.6c-4.5,3.7-7.3,8.2-8.2,13.6l-7.4,41.9h-14.4l7.4-41.9
		c1.7-9.3,6.4-17.3,14.2-23.8C556,129,564.9,125.8,574.7,125.8z"/>
	<path class="st0" d="M595.8,127l-13.2,74.2h-14.3l13.2-74.2L595.8,127L595.8,127z M599.8,103l-3.4,19.2h-14.3l3.4-19.2H599.8z"/>
	<path class="st0" d="M665.9,153.4c0,1.9-0.2,3.9-0.6,5.9l-7.4,41.9h-14.3l7.4-41.9c0.2-1.1,0.3-2.2,0.3-3.4c0-4.5-1.5-8.3-4.6-11.3
		c-3-3-6.9-4.5-11.6-4.5c-5.3,0-10.1,1.9-14.5,5.6c-4.4,3.8-7.1,8.3-8,13.5l-7.4,41.9h-14.3l7.4-41.9c1.7-9.3,6.4-17.2,14.1-23.7
		c7.7-6.5,16.2-9.8,25.4-9.8c8.1,0,14.9,2.6,20.2,7.9C663.3,138.9,665.9,145.5,665.9,153.4z"/>
	<path class="st0" d="M746.3,157.4c0,2.2-0.2,4.5-0.6,6.7l-4.3,24c-1.8,10.5-7.1,19.4-15.8,26.5c-8.7,7.1-18.4,10.7-29,10.7
		c-8.5,0-15.6-2.3-21.4-7c-5.8-4.7-9.4-11.1-10.8-19.3h15.4c3,8,9.4,12,19.3,12c6.1,0,11.8-1.8,16.8-5.4c5.1-3.6,8.5-8.3,10.2-14
		c-6.1,7.3-14.7,11-25.6,11c-9.3,0-17-3-23-9c-6-6-9-13.5-9-22.6c0-2.2,0.2-4.5,0.6-6.7c1.8-10.5,7.2-19.6,16-27.1
		c8.8-7.5,18.5-11.3,29-11.3c9.4,0,17.1,3,23.2,9C743.3,140.8,746.3,148.4,746.3,157.4z M731.7,159.9c0-5.7-1.9-10.4-5.7-14.1
		c-3.8-3.8-8.6-5.6-14.4-5.6c-7.4,0-14,2.9-19.8,8.6c-5.8,5.7-8.7,12.2-8.7,19.6c0,5.7,1.9,10.4,5.6,14.1c3.7,3.8,8.6,5.6,14.5,5.6
		c7.3,0,13.9-2.9,19.8-8.6C728.8,173.8,731.7,167.2,731.7,159.9z"/>
	<g>
		<path class="st1" d="M709.7,248.8c20.9-6,39.3-14.1,58.1-24.2c7.7-4.1,33.2-14.9,27.8-23.3c-4.4-6.8-11-0.9-17,2.7
			c-32,18.9-65.5,33.5-108.6,40c0.2,1.1,0.3,2.2,0.3,3.4c0,1.4-0.1,2.8-0.3,4.3l-0.2,1.2h-13.8v-3.5c0-1.3-0.3-2.5-0.8-3.4
			c-4.6,0.5-9.3,0.9-14.1,1.2c-1.2,1.6-1.9,3.3-1.9,5c0,2.3,1.9,4.9,5.6,7.6c0.3,0,0.7,0,1-0.1c15.7-1.1,29.7-3,42.6-5.6
			c5.6-3.5,11.7-5.3,18.2-5.3C707.7,248.7,708.7,248.7,709.7,248.8z"/>
		<path class="st1" d="M625.2,251.2c0.2-1.2,0.5-2.4,0.9-3.5c-60.2,1.4-117.7-10.5-175.9-15.8c-106.8-9.8-198.5,2.8-287,16.1
			c-30.7,4.6-64.2,10.5-96.9,7.2c-43.6-4.4-74.1-43.9-77.1-88.8c-3.2-47.1,27.4-86.6,71.8-87c37.9-0.3,69.2,30.9,72.7,70.9
			c3.2,36.4-15.5,60-39.5,68.2c-42.4,14.5-77.2-25.8-73.6-64.6c2.5-27.3,29.2-49.6,57.4-36.8c12.3,5.6,32.6,27.4,22.4,53.8
			c-6.9,17.9-36.6,21.3-45.7,0.9c-3.6-8-4.9-23.7,7.2-23.3c12.2,0.4,5,18.3,16.1,17c7.1-0.8,6.2-10.8,2.7-17.9
			c-3.3-6.6-9.5-10.9-15.2-11.7c-29.1-3.9-29.7,31-19.7,46.6c19.9,31.1,65.1,15,69.1-17c7.3-58.3-60.4-82.9-92.4-46.6
			c-23.8,27-14.6,74.5,9,96.9c10.3,9.8,26.7,20.7,53.8,17.9c13.7-1.4,28.1-7.2,42.2-10.8c35.4-9.1,72-18.6,106.7-27.8
			c7.1-1.9,15.5-3.2,17.9-7.2c0.5-3.8-1.6-5-1.8-8.1c-8-2.6-16.1,2.3-24.2,4.5c-26.3,7-52.8,13.2-78,19.7
			c19.6-34.4,9.6-83.7-9-109.4c-6.6-9.1-15.7-14.8-20.6-22.4c44.8-4.5,97.7-12.4,143.5-17.9c17.1-2.1,35.2-7,50.2-4.5
			c10.4,1.8,19.7,9.2,25.1,15.2c7.6,8.6,7.2,25.9,25.1,23.3c-9.5-30-29-55.6-67.3-50.2c-46.1,6.5-97.8,11.7-153.4,18.8
			C91.5,63.4,31.9,62.6,3.6,91c-30.1,30.1-35.3,83.6-13.5,123.8c13.2,24.3,39.5,48.4,75.3,52.9c32,4,67.1-2,96.9-6.3
			c31-4.5,61.3-10.8,90.6-14.4c59.8-7.3,132.4-8.4,200-2.7c55.6,4.7,110.2,17.7,173.1,16.2c-0.8-1.9-1.2-4-1.2-6
			C624.9,253.4,625,252.3,625.2,251.2z"/>
		<path class="st0" d="M667.3,250.2c0.1-0.9,0.1-1.8,0.1-2.7c0-1.1-0.1-2.1-0.2-3c-0.5-3.5-1.9-6.4-4.3-8.8c-3-3.1-6.8-4.6-11.5-4.6
			c-5.5,0-10.5,2.1-15.1,6.2c-3.4,3.1-5.9,6.5-7.4,10.4c-0.5,1.3-0.9,2.7-1.1,4.1c-0.2,1-0.3,1.9-0.3,2.9c0,2.1,0.5,4.1,1.4,6
			c1,2.1,2.6,4.2,4.8,6.1c0.4,0.3,2.8,2.1,12.3,8.6c5.4,3.6,8,7.1,8,10.7c0,3.6-1.6,6.7-4.8,9.4c-3.1,2.6-6.5,4-10,4
			c-3.3,0-5.9-1.1-7.8-3.2c-1.8-2.1-2.7-4.7-2.7-7.8V287H620c-0.1,1.1-0.2,2.2-0.2,3.3c0,5.2,1.5,9.4,4.7,12.7c3.1,3.4,7.3,5,12.7,5
			c5.8,0,11.2-2.1,16.3-6.3c5-4.2,8.1-9.3,9.1-15.1c0.2-1,0.3-2,0.3-3c0-4.4-2-8.4-6.2-12.2c-0.3-0.3-2.3-1.8-12.3-8.7
			c-1.3-0.9-2.5-1.8-3.4-2.7c-2.9-2.7-4.4-5.3-4.4-7.9c0-1.7,0.4-3.3,1.3-4.9c0.7-1.3,1.6-2.5,2.9-3.7c2.7-2.5,5.7-3.8,8.8-3.8
			c2.6,0,4.9,0.9,6.6,2.7c0.9,0.9,1.6,2,2,3.2c0.4,1.1,0.6,2.4,0.6,3.7v0.8L667.3,250.2L667.3,250.2z"/>
		<path class="st0" d="M684.4,258.6c-6.7,5.7-10.8,12.7-12.3,20.7l-7.4,42.1h8.6l3.7-21.3l1.8,1.7c4.5,4.2,10.2,6.3,16.9,6.3
			c8,0,15.4-2.9,22.1-8.6c6.7-5.7,10.8-12.7,12.2-20.6c0.3-1.7,0.5-3.4,0.5-5.1c0-6.7-2.3-12.4-6.8-16.9c-4.5-4.5-10.3-6.8-17.3-6.8
			c-0.5,0-0.9,0-1.4,0.1c-4,1.1-8,2-12.2,3C690,254.4,687.2,256.3,684.4,258.6z M716.9,263.6c3.2,3.2,4.9,7.3,4.9,12.1
			c0,6.2-2.5,11.7-7.3,16.5c-4.8,4.8-10.4,7.2-16.6,7.2c-5,0-9.1-1.6-12.4-4.8c-3.3-3.2-4.9-7.3-4.9-12.2c0-6.2,2.5-11.7,7.3-16.5
			c4.9-4.8,10.5-7.2,16.7-7.2C709.6,258.7,713.7,260.3,716.9,263.6z"/>
		<path class="st0" d="M705.2,250.1c-4.2,0.2-8.3,1.2-12.2,3C697.2,252.1,701.2,251.1,705.2,250.1z"/>
		<path class="st0" d="M732.2,279c0.3-1.5,0.7-3,1.1-4.5c0-0.3,0-0.6,0-0.9c0-1,0-1.9-0.1-2.8c-0.5,1.1-0.9,2.3-1.3,3.4
			c0,1.6-0.2,3.1-0.4,4.7c-0.3,1.5-0.7,3-1.1,4.4c0,0.3,0,0.6,0,0.9c0,0.9,0,1.9,0.1,2.8c0.5-1.1,0.9-2.3,1.3-3.4
			C731.8,282.1,731.9,280.6,732.2,279z"/>
		<path class="st0" d="M732,274.3c-0.4,1.5-0.8,2.9-1.1,4.4c-0.3,1.6-0.4,3.1-0.5,4.7c0.5-1.4,0.8-2.9,1.1-4.4
			C731.8,277.5,732,275.9,732,274.3z"/>
		<path class="st0" d="M731.8,283.7c0.4-1.4,0.8-2.9,1.1-4.4c0.3-1.6,0.4-3.1,0.5-4.7c-0.5,1.5-0.8,2.9-1.1,4.5
			C731.9,280.6,731.8,282.1,731.8,283.7z"/>
	</g>
	<g>
		<path class="st0" d="M764.9,250c-8,0-15.4,2.9-22.1,8.6c-6.7,5.7-10.8,12.7-12.2,20.6c-0.3,1.7-0.5,3.4-0.5,5.1
			c0,6.8,2.2,12.4,6.8,16.9c4.5,4.5,10.3,6.8,17.4,6.8c8,0,15.4-2.9,22.1-8.6c6.7-5.7,10.8-12.7,12.2-20.6c0.3-1.7,0.5-3.4,0.5-5.1
			c0-6.7-2.3-12.4-6.8-16.9C777.8,252.3,771.9,250,764.9,250z M772.9,292.2c-4.8,4.8-10.4,7.2-16.7,7.2c-5,0-9.1-1.6-12.4-4.8
			c-3.3-3.2-4.9-7.3-4.9-12.2c0-6.2,2.5-11.7,7.3-16.5c4.9-4.8,10.4-7.2,16.6-7.2c5,0,9.2,1.6,12.4,4.9c3.2,3.2,4.9,7.3,4.9,12.1
			C780.2,281.9,777.7,287.4,772.9,292.2z"/>
		<polygon class="st0" points="808.7,251.8 812.2,232.8 803.4,232.8 800,251.8 790.6,251.8 789.1,260.5 798.5,260.5 790.1,307.9 
			798.9,307.9 807.3,260.5 816.7,260.5 818.2,251.8 		"/>
	</g>
</g>
<g>
	<g>
		<polygon class="st0" points="184.9,93 183.9,98.8 196.7,98.8 189.7,138.3 195.4,138.3 202.4,98.8 215.1,98.8 216.1,93 		"/>
	</g>
	<path class="st0" d="M233.5,103.7c-3.2,0-6.3,0.9-9.3,2.7l-1,0.6l2.5-14.1H220l-8,45.3h5.7l3.3-19.4c0.5-2.6,1.8-4.8,4-6.7
		c2.2-1.8,4.6-2.8,7.2-2.8c2.3,0,4.3,0.8,5.8,2.3c1.5,1.5,2.3,3.4,2.3,5.7c0,0.6-0.1,1.1-0.2,1.7l-3.3,19.2h5.7L246,119
		c0.2-0.9,0.3-1.8,0.3-2.7c0-3.6-1.2-6.6-3.6-9C240.3,104.9,237.2,103.7,233.5,103.7z"/>
	<g>
		<path class="st2" d="M273.5,110.8c-1.5-0.9-3.3-1.3-5.3-1.3c-3.6,0-6.8,1.4-9.7,4.2c-2.8,2.8-4.3,6-4.3,9.6c0,1.2,0.2,2.3,0.5,3.4
			l0.2,0.7l19.1-16.3L273.5,110.8z M255.6,125.6c-0.2-0.7-0.2-1.5-0.2-2.3c0-3.3,1.3-6.3,4-8.9c2.6-2.6,5.7-3.9,9-3.9
			c1.5,0,2.9,0.3,4.1,0.8L255.6,125.6z"/>
		<path class="st0" d="M277.7,124.2l-0.3-0.3c-0.8,2.2-2.2,4.1-4.2,5.8c-2.7,2.3-5.7,3.5-8.9,3.5c-2,0-3.7-0.4-5.3-1.3l-0.6-0.4
			l24-20.4c-2.8-4.9-7-7.3-13-7.3c-4.8,0-9.3,1.7-13.4,5.2c-4.1,3.4-6.5,7.6-7.4,12.5c-0.2,1-0.3,2-0.3,3c0,4.1,1.4,7.6,4.1,10.3
			c2.7,2.7,6.3,4.1,10.5,4.1c4.8,0,9.3-1.7,13.3-5.2c2.3-1.9,4.2-4.3,5.5-6.9c1.4-2.8,2.1-5.6,2.1-8.4c0,0,0,0,0-0.1L277.7,124.2z
			 M254.8,126.7c-0.3-1.1-0.5-2.2-0.5-3.4c0-3.6,1.4-6.8,4.3-9.6c2.8-2.8,6.1-4.2,9.7-4.2c2,0,3.7,0.4,5.3,1.3l0.6,0.4L255,127.4
			L254.8,126.7z"/>
	</g>
</g>
</svg>
