<?xml version="1.0" encoding="UTF-8"?>
<!-- Generator: Adobe Illustrator 16.0.0, SVG Export Plug-In . SVG Version: 6.00 Build 0)  -->
<!DOCTYPE svg PUBLIC "-//W3C//DTD SVG 1.1//EN" "http://www.w3.org/Graphics/SVG/1.1/DTD/svg11.dtd">
<svg version="1.1" id="Layer_1" xmlns="http://www.w3.org/2000/svg" xmlns:xlink="http://www.w3.org/1999/xlink" x="0px" y="0px" width="40px" height="77.744px" viewBox="400.36 536.795 40 77.744" enable-background="new 400.36 536.795 40 77.744" xml:space="preserve">
<g>
	<g>
		<g>
			<g>
				<g>
					<path id="SVGID_1_" fill="#7DC242" d="M418.772,567.359v7.678c1.784,0,3.704-0.771,5.109-2.177       c1.406-1.406,2.042-3.325,2.042-5.501H418.772L418.772,567.359z M429.383,544.852c-2.812,0-5.244,0.892-7.286,2.69       c-2.041-1.784-4.474-2.69-7.165-2.69v7.678c0.771,0,2.042,0.378,2.69,1.149c0.771,0.771,1.149,1.542,1.149,2.177l0,0v10.99       h7.164v-10.869v-0.122c0-0.893,0.379-1.663,1.027-2.298c0.636-0.635,1.406-1.027,2.299-1.027l0,0L429.383,544.852       L429.383,544.852z M429.64,552.517c0.893,0.122,1.541,0.513,2.177,1.149c0.636,0.635,0.893,1.406,0.893,2.298       s-0.379,1.663-1.027,2.433c-0.636,0.636-1.406,1.028-2.434,1.028h-3.068v7.678h3.189c3.069,0,5.624-1.149,7.8-3.326       c2.177-2.176,3.191-4.731,3.191-7.8c0-2.947-1.028-5.624-3.191-7.678c-2.041-2.176-4.609-3.326-7.678-3.326L429.64,552.517       L429.64,552.517z"/>
				</g>
				<g>
					<g>
						<g>
							<defs>
								<path id="SVGID_2_" d="M418.772,567.359v7.678c1.784,0,3.704-0.771,5.109-2.177c1.406-1.406,2.042-3.325,2.042-5.501          H418.772L418.772,567.359z M429.383,544.852c-2.812,0-5.244,0.892-7.286,2.69c-2.041-1.784-4.474-2.69-7.165-2.69v7.678          c0.771,0,2.042,0.378,2.69,1.149c0.771,0.771,1.149,1.542,1.149,2.177l0,0v10.99h7.164v-10.869v-0.122          c0-0.893,0.379-1.663,1.027-2.298c0.636-0.635,1.406-1.027,2.299-1.027l0,0L429.383,544.852L429.383,544.852z           M429.64,552.517c0.893,0.122,1.541,0.513,2.177,1.149c0.636,0.635,0.893,1.406,0.893,2.298s-0.379,1.663-1.027,2.433          c-0.636,0.636-1.406,1.028-2.434,1.028h-3.068v7.678h3.189c3.069,0,5.624-1.149,7.8-3.326          c2.177-2.176,3.191-4.731,3.191-7.8c0-2.947-1.028-5.624-3.191-7.678c-2.041-2.176-4.609-3.326-7.678-3.326L429.64,552.517          L429.64,552.517z"/>
							</defs>
							<clipPath id="SVGID_4_">
								<use xlink:href="#SVGID_2_" overflow="visible"/>
							</clipPath>
							<rect x="414.811" y="544.852" clip-path="url(#SVGID_4_)" fill="#666" width="25.576" height="30.172"/>
						</g>
					</g>
				</g>
			</g>
		</g>
		<g>
			<g>
				<g>
					<path id="SVGID_3_" fill="#7DC242" d="M411.351,544.852c-3.069,0-5.624,1.149-7.8,3.326c-2.177,2.176-3.19,4.731-3.19,7.678       c0,3.068,1.027,5.624,3.19,7.8c2.041,2.176,4.609,3.325,7.678,3.325v-7.678c-0.893-0.122-1.541-0.514-2.177-1.149       c-0.635-0.635-1.027-1.406-1.027-2.298c0-0.893,0.379-1.785,1.027-2.434c0.649-0.649,1.406-1.027,2.298-1.027h3.068v-7.678       h-3.068V544.852L411.351,544.852z M414.811,544.852v10.99v0.122c0,0.892-0.378,1.663-1.027,2.298       c-0.635,0.635-1.406,1.027-2.298,1.027l0,0v7.678l0,0c2.812,0,5.245-0.893,7.286-2.812c2.176,1.785,4.475,2.812,7.164,2.812       v-7.678c-0.892,0-1.662-0.378-2.298-1.149c-0.635-0.77-1.027-1.541-1.148-2.298l0,0v-10.99H414.811z M416.988,538.971       c-1.406,1.406-2.042,3.326-2.177,5.502h7.679v-7.678C420.178,536.795,418.394,537.565,416.988,538.971"/>
				</g>
				<g>
					<g>
						<g>
							<defs>
								<path id="SVGID_5_" d="M411.351,544.852c-3.069,0-5.624,1.149-7.8,3.326c-2.177,2.176-3.19,4.731-3.19,7.678          c0,3.068,1.027,5.624,3.19,7.8c2.041,2.176,4.609,3.325,7.678,3.325v-7.678c-0.893-0.122-1.541-0.514-2.177-1.149          c-0.635-0.635-1.027-1.406-1.027-2.298c0-0.893,0.379-1.785,1.027-2.434c0.649-0.649,1.406-1.027,2.298-1.027h3.068v-7.678          h-3.068V544.852L411.351,544.852z M414.811,544.852v10.99v0.122c0,0.892-0.378,1.663-1.027,2.298          c-0.635,0.635-1.406,1.027-2.298,1.027l0,0v7.678l0,0c2.812,0,5.245-0.893,7.286-2.812c2.176,1.785,4.475,2.812,7.164,2.812          v-7.678c-0.892,0-1.662-0.378-2.298-1.149c-0.635-0.77-1.027-1.541-1.148-2.298l0,0v-10.99H414.811z M416.988,538.971          c-1.406,1.406-2.042,3.326-2.177,5.502h7.679v-7.678C420.178,536.795,418.394,537.565,416.988,538.971"/>
							</defs>
							<clipPath id="SVGID_6_">
								<use xlink:href="#SVGID_5_" overflow="visible"/>
							</clipPath>
							<rect x="400.36" y="536.795" clip-path="url(#SVGID_6_)" fill="#666666" width="25.576" height="30.172"/>
						</g>
					</g>
				</g>
			</g>
		</g>
	</g>
	<g>
		<g>
			<g>
				<g>
					<g>
						<g>
							<defs>
								<path id="SVGID_7_" d="M418.772,606.86v7.679c1.784,0,3.704-0.771,5.109-2.177c1.406-1.406,2.042-3.325,2.042-5.502H418.772          L418.772,606.86z M429.383,584.366c-2.812,0-5.244,0.892-7.286,2.69c-2.041-1.785-4.474-2.69-7.165-2.69v7.679          c0.771,0,2.042,0.378,2.69,1.149c0.771,0.771,1.149,1.541,1.149,2.176l0,0v10.99h7.164v-10.99v-0.122          c0-0.892,0.379-1.663,1.027-2.298c0.636-0.635,1.406-1.027,2.299-1.027l0,0L429.383,584.366L429.383,584.366          L429.383,584.366z M429.64,592.031c0.893,0.122,1.541,0.514,2.177,1.149s0.893,1.406,0.893,2.298          c0,0.892-0.379,1.662-1.027,2.433c-0.636,0.636-1.406,1.027-2.434,1.027h-3.068v7.679h3.189c3.069,0,5.624-1.149,7.8-3.325          c2.177-2.177,3.191-4.731,3.191-7.8c0-2.947-1.028-5.624-3.191-7.678c-2.041-2.176-4.609-3.325-7.678-3.325L429.64,592.031          L429.64,592.031z"/>
							</defs>
							<clipPath id="SVGID_8_">
								<use xlink:href="#SVGID_7_" overflow="visible"/>
							</clipPath>
							
								<radialGradient id="SVGID_9_" cx="-641.4053" cy="1162.8013" r="0.0291" gradientTransform="matrix(1048.9801 0 0 -1048.9801 673250.3125 1220340.875)" gradientUnits="userSpaceOnUse">
								<stop offset="0" style="stop-color:#E39826"/>
								<stop offset="1" style="stop-color:#DD5D26"/>
							</radialGradient>
							<rect x="414.811" y="584.366" clip-path="url(#SVGID_8_)" fill="url(#SVGID_9_)" width="25.576" height="30.173"/>
						</g>
					</g>
				</g>
			</g>
		</g>
		<g>
			<g>
				<g>
					<g>
						<g>
							<defs>
								<path id="SVGID_10_" d="M411.351,584.366c-3.069,0-5.624,1.149-7.8,3.326c-2.177,2.041-3.19,4.731-3.19,7.678          c0,3.068,1.027,5.623,3.19,7.8c2.041,2.177,4.609,3.325,7.678,3.325v-7.678c-0.893-0.122-1.541-0.514-2.177-1.149          c-0.635-0.636-1.027-1.406-1.027-2.176c0-0.892,0.379-1.784,1.027-2.433c0.649-0.649,1.406-1.027,2.298-1.027h3.068v-7.678          h-3.068V584.366L411.351,584.366z M414.811,584.366v10.99v0.122c0,0.892-0.378,1.662-1.027,2.298          c-0.635,0.636-1.406,1.027-2.298,1.027l0,0v7.679l0,0c2.812,0,5.245-0.893,7.286-2.813c2.176,1.784,4.475,2.813,7.164,2.813          v-7.679c-0.892,0-1.662-0.379-2.298-1.149c-0.635-0.771-1.027-1.541-1.148-2.298l0,0v-11.125L414.811,584.366          L414.811,584.366z M416.988,578.485c-1.406,1.406-2.042,3.326-2.177,5.502h7.679v-7.678          C420.178,576.309,418.394,577.08,416.988,578.485"/>
							</defs>
							<clipPath id="SVGID_11_">
								<use xlink:href="#SVGID_10_" overflow="visible"/>
							</clipPath>
							
								<radialGradient id="SVGID_12_" cx="-640.8311" cy="1162.7954" r="0.029" gradientTransform="matrix(1057.967 0 0 -1057.967 678388.8125 1230783.375)" gradientUnits="userSpaceOnUse">
								<stop offset="0" style="stop-color:#01A2CF"/>
								<stop offset="1" style="stop-color:#005D9A"/>
							</radialGradient>
							<rect x="400.36" y="576.309" clip-path="url(#SVGID_11_)" fill="url(#SVGID_12_)" width="25.576" height="30.173"/>
						</g>
					</g>
				</g>
			</g>
		</g>
	</g>
</g>
</svg>